<svg height="512" viewBox="0 0 512 512" width="512" xmlns="http://www.w3.org/2000/svg"><path fill="transparent" d="M0 0h512v512H0z"/><path d="M386.788 267.99c-14.118-15.222-32.918-25.304-56.395-30.238v-2.047c16.339-6.796 29.135-17.431 38.409-31.897 9.269-14.458 13.906-30.962 13.906-49.505 0-15.993-3.363-30.114-10.074-42.372-6.726-12.25-16.89-22.03-30.499-29.341-12.597-6.806-26.068-11.272-40.449-13.401C287.306 67.06 266.17 66 238.262 66h-134.24v380H256.13c26.365 0 48.112-2.39 65.201-7.152 17.096-4.754 32.8-12.754 47.086-23.99 12.087-9.357 21.698-21.181 28.838-35.476 7.138-14.292 10.723-30.873 10.723-49.762 0-25.852-7.063-46.403-21.19-61.63zM198.971 135.666h6.629c17.014 0 29.817.129 38.403.382 8.6.258 16.034 1.749 22.34 4.466 6.636 2.9 11.514 7.574 14.663 14.038 3.15 6.47 4.727 12.763 4.727 18.882 0 8.347-1.453 15.66-4.335 21.95-2.9 6.301-8.173 11.235-15.827 14.802-6.98 3.236-13.734 5.018-20.287 5.365-6.553.344-17.991.503-34.325.503h-11.99v-80.388zm104.755 216.8c-3.996 7.228-10.337 12.723-19.012 16.452-9.876 4.261-19.57 6.561-29.093 6.895-9.53.34-26.715.52-51.543.52h-5.107V281.13h17.6c17.02 0 30.58.128 40.703.386 10.124.255 18.082 1.494 23.862 3.703 9.533 3.405 16.67 8.418 21.439 15.053 4.77 6.635 7.153 15.822 7.153 27.562 0 9.185-2.005 17.403-6.002 24.63z" fill="currentColor" fill-rule="evenodd"/></svg>